HIERARCHY
ROOT Hips
{
  OFFSET 0.0 0.0 0.0
  CHANNELS 6 XPOSITION YPOSITION ZPOSITION ZROTATION XROTATION YROTATION 
  JOINT LeftUpLeg
  {
    OFFSET 0.089458 -0.0866707 0.00101652
    CHANNELS 3 ZROTATION XROTATION YROTATION 
    JOINT LeftLeg
    {
      OFFSET 0.0 -0.444227 0.013727
      CHANNELS 3 ZROTATION XROTATION YROTATION 
      JOINT LeftFoot
      {
        OFFSET -0.00253549 -0.420924 -0.0146059
        CHANNELS 3 ZROTATION XROTATION YROTATION 
        End Site
        {
          OFFSET -0.0004 -0.0441509 0.084991
        }
      }
    }
  }
  JOINT Spine
  {
    OFFSET 0.0 0.118905 0.0
    CHANNELS 3 ZROTATION XROTATION YROTATION 
    JOINT Spine1
    {
      OFFSET 0.0 0.256574 0.00127663
      CHANNELS 3 ZROTATION XROTATION YROTATION 
      End Site
      {
        OFFSET -0.0029 0.2150836 0.02525291
      }
      JOINT RightArm
      {
        OFFSET -0.162727 -0.05365632 0.00102123
        CHANNELS 3 ZROTATION XROTATION YROTATION 
        JOINT RightForeArm
        {
          OFFSET -0.26364 0.00099144 -0.0142434
          CHANNELS 3 ZROTATION XROTATION YROTATION 
          End Site
          {
            OFFSET -0.220324 0.00085362 0.0102216
          }
        }
      }
      JOINT LeftArm
      {
        OFFSET 0.162727 -0.0536563199 0.00102123
        CHANNELS 3 ZROTATION XROTATION YROTATION 
        JOINT LeftForeArm
        {
          OFFSET 0.262597 0.00099144 -0.0142434
          CHANNELS 3 ZROTATION XROTATION YROTATION 
          End Site
          {
            OFFSET 0.220902 0.00085362 0.0102216
          }
        }
      }
    }
  }
  JOINT RightUpLeg
  {
    OFFSET -0.089458 -0.0866707 0.00101652
    CHANNELS 3 ZROTATION XROTATION YROTATION 
    JOINT RightLeg
    {
      OFFSET 0.0 -0.444227 0.013727
      CHANNELS 3 ZROTATION XROTATION YROTATION 
      JOINT RightFoot
      {
        OFFSET 0.00253549 -0.420924 -0.0146059
        CHANNELS 3 ZROTATION XROTATION YROTATION 
        End Site
        {
          OFFSET 0.0004 -0.0441509 0.084991
        }
      }
    }
  }
}
MOTION
Frames: 11
Frame Time: 0.033333
-28.544956 0.917660723766 -0.63619448 -5.40733995693 -3.10332996001 -92.1511979043 -8.06973958455 -20.1403000415 -0.829848987693 1.27630995904 28.1918004596 24.6997996521 -10.0602394163 -30.1838626971 -25.3399881604 -0.85340001356 8.34471958544 1.49661995188 -4.78977004699 0.63592198791 2.26657991994 83.9457296544 -20.143873938 22.5276594772 12.4944001619 46.8353994407 -1.03608996478 -73.4941536958 -16.3309788904 -1.70846894115 -15.1732003544 50.6792010943 1.45234004893 -2.66255992362 15.2733001918 -2.42643003873 -0.670410974763 34.1475990574 -7.06883982159 28.4141982492 -70.3012724853 32.7386881259 
-28.576698 0.922170723766 -0.63320808 -5.3554898565 -3.47228994879 -92.7668028542 -8.69163001603 -17.9910000191 -0.687166976262 1.30027997432 28.1705995524 25.2092993208 -11.0413926754 -32.3019624153 -25.7437530856 -3.23874998625 8.39826997608 1.18643000565 -2.89201009695 0.041395498718 1.35491999358 83.4931203388 -23.7493719989 16.7259397018 15.0341991746 50.3425991267 -7.53893997094 -74.4619710107 -15.3691243307 -6.95765800228 -15.7597991984 51.647701428 1.85141007289 -3.85853992111 10.2026001953 -0.36759699251 -0.840079010244 45.2414996658 -7.09043986796 40.0393168203 -75.43680976 42.7236255604 
-28.606011 0.927330723766 -0.63062048 -5.46560018989 -3.60024991435 -93.3682010106 -8.93586989678 -15.5446004282 -0.188596997631 1.27409004084 27.4667997849 25.3811007765 -11.7329117629 -33.9477989487 -26.0543183721 -5.56908011713 8.88388959588 0.611628018888 -0.719361019554 -0.52932301209 0.112734993655 81.5035955166 -26.7320063264 10.5293581528 16.7683995728 53.5413986962 -11.4793999003 -74.5432161108 -13.3925316179 -11.3743592748 -14.0418999005 50.0387001048 -0.93838795068 -4.31296009056 4.26242010579 1.34421004352 -1.11250003807 56.0549014805 -8.08121003349 58.8106403389 -77.8455101217 60.2231234593 
-28.633591 0.932693723766 -0.62852928 -5.79921010773 -3.35260006165 -93.6726020514 -8.83756042274 -12.9185002679 -0.177900000916 1.15045998832 26.7049997584 25.8132007415 -12.4726092971 -35.3881424107 -26.4093396523 -7.32778979539 9.55500007806 -0.0236678994748 1.39411001821 -0.67339197881 -1.15084002432 77.8225743465 -27.8173643667 3.52870154836 15.9110998414 53.8816992112 -10.5246000723 -73.3299696086 -9.94818162518 -15.8052267866 -11.7501998254 46.0893993494 -4.77912007452 -3.9491799465 -1.32517003743 2.43209994952 -1.58429001891 64.8141034118 -9.42346002616 74.0215467526 -77.5566682519 74.5220903357 
-28.660539 0.938250723766 -0.62659658 -6.23486006356 -2.58306996862 -93.9112010497 -8.18453969657 -10.0280000696 -0.110210998632 0.996755012068 25.6629007213 26.2134993458 -13.1885761929 -36.6702508801 -26.8357347018 -7.8386298887 10.1343000112 -0.545603995276 2.82968995686 -0.49958602263 -2.07332996265 73.5047883004 -27.1684810276 -3.81356355232 13.3878998959 51.2534014374 -6.18979020655 -71.0216593672 -6.40712725282 -20.6721822401 -10.0918000129 42.0243986045 -7.79118995604 -2.96000996622 -6.4373798682 3.05164997399 -2.26827999671 70.9283999643 -10.9031001278 78.3846784246 -75.6386555103 78.4803625447 
-28.686877 0.942901723766 -0.62472668 -6.59408020258 -1.64128005012 -94.2660020563 -7.27667009832 -7.16425030722 0.437200995742 0.811544987852 24.4145999807 26.2629994342 -13.7537043373 -37.8576587768 -27.2619299683 -7.59465980041 10.7040001135 -1.02116995014 3.55803998561 -0.515622986636 -2.74474993778 69.5830371129 -25.9362465994 -10.4763567386 11.3990999275 48.0945994557 -2.04319004539 -68.3419370992 -4.28315314502 -25.1964602727 -8.45679957462 39.0639999578 -10.3766001182 -1.80643989395 -11.4237995991 3.56868995807 -2.98498007061 74.3965992701 -12.2538998097 73.3995555758 -73.0395226443 73.5695453239 
-28.712451 0.946206723766 -0.62291838 -6.86190984918 -0.85988298366 -94.6188974401 -6.52665983217 -4.52821990555 1.13902998691 0.617863021105 23.2682995776 26.0702993072 -14.2372202588 -39.0465078433 -27.6263359284 -7.30728983637 11.4572999695 -1.57106004921 4.06233014095 -0.913349971287 -3.40388005472 66.2224269469 -25.0362803838 -15.826596741 10.247999609 46.1879009225 0.564360975398 -65.6697485299 -3.26860922542 -28.6475687377 -6.34943990198 35.9382014502 -13.3217998865 -0.772817014845 -16.1685996806 4.12136986924 -3.32479009267 75.2825021262 -13.1109997581 62.622220575 -70.2298013858 63.1890238233 
-28.737546 0.948096723766 -0.62124828 -7.1159800797 -0.29156399368 -94.7993032267 -6.04222994594 -2.05923010433 1.71514000826 0.478240987783 22.3442996338 25.7696992667 -14.7708629387 -40.2821641963 -27.9880559167 -7.17330969938 12.3017000349 -2.13001007404 4.65430989339 -1.30325996452 -4.06001982946 63.2227512974 -24.8403495773 -19.846866577 9.57711964569 45.0825987299 1.82447009925 -62.998659621 -2.56415760169 -31.3209969863 -4.32652996889 31.721799317 -16.3662004684 0.0269682999091 -20.1882001581 4.48355004149 -3.03390001988 73.5572987947 -13.7726000556 49.5775735434 -66.4956345137 50.8533231068 
-28.762808 0.948876723766 -0.61986708 -7.33335042315 0.168964005728 -94.7166989189 -5.68186020071 0.423092012712 2.19350009747 0.366564993615 21.3175002204 25.3341005373 -15.2916938912 -41.4510486199 -28.4080135129 -7.06135009228 13.0218999404 -2.62420008714 5.39173980486 -1.43692996822 -4.63831999365 60.5105583101 -25.3991768722 -22.7675596265 9.29370009231 44.0284990504 1.94200997091 -60.8055473502 -2.39031370595 -33.6810527408 -2.79147995765 27.7498991732 -19.0386007736 0.455527994111 -23.2725001439 4.1871300768 -2.43490993203 69.3218028678 -14.4394006885 37.8067670373 -60.9587553234 40.3087848586 
-28.788362 0.949426723766 -0.61879258 -7.42541966561 0.609163974784 -94.3999967074 -5.30092987853 2.97531001685 2.5976799567 0.255943996869 19.8774999754 24.7744006858 -15.7134512423 -42.3981738766 -28.8495510918 -6.7787501616 13.6517996224 -3.0687499929 6.21370013751 -1.57931998907 -5.11832989371 58.1520598388 -26.5431857468 -24.8178475191 9.25813017466 43.1624993655 1.11746996119 -59.8270681101 -3.18746102856 -35.5727931598 -1.41587996553 25.6122992648 -21.4797001377 0.521464025676 -25.4786000194 3.0862801003 -1.88069002664 62.8231032687 -14.7022997922 28.2573549077 -53.7719039203 32.5000174107 
-28.814088 0.949446723766 -0.61804358 -7.38266012009 0.949352005124 -94.0547033241 -4.99334981162 5.31643013908 2.9375000106 0.188628000287 18.5588995128 24.189200323 -16.2195494767 -43.3646832102 -29.2919834255 -6.33048996901 14.2500003965 -3.39202007156 6.85245003718 -1.88579004352 -5.4224701066 56.3407448973 -27.9529367915 -26.174403343 9.21709012925 42.5813014935 -0.0118040001249 -60.2864393129 -4.89965669168 -36.8253917969 -0.109809998493 25.592500254 -23.9322998328 0.412881013305 -26.7188991934 1.69779004711 -1.43454996746 54.3664001705 -14.2800002949 20.5023803222 -45.4857950419 26.6006652038 
